<svg xmlns="http://www.w3.org/2000/svg" width="16" height="16" viewBox="0 0 16 16"><path style="line-height:normal;text-indent:0;text-align:start;text-decoration-line:none;text-decoration-style:solid;text-decoration-color:#000;text-transform:none;block-progression:tb;white-space:normal;isolation:auto;mix-blend-mode:normal;solid-color:#000;solid-opacity:1" d="M 7.0019531 1 L 7.0019531 4 L 8.0019531 4 L 8.0019531 1 L 7.0019531 1 z M 2.90625 2.6972656 L 2.1992188 3.4042969 L 4.3203125 5.5253906 L 5.0273438 4.8183594 L 2.90625 2.6972656 z M 12.099609 2.6972656 L 9.9785156 4.8183594 L 10.685547 5.5253906 L 12.806641 3.4042969 L 12.099609 2.6972656 z M 7.5019531 5 C 5.8510212 5 4.5019531 6.3491 4.5019531 8 C 4.5019531 9.651 5.8510212 11 7.5019531 11 C 9.1528852 11 10.501953 9.651 10.501953 8 C 10.501953 6.3491 9.1528852 5 7.5019531 5 z M 7.5019531 6 C 8.612445 6 9.5019531 6.8895 9.5019531 8 C 9.5019531 9.1105 8.612445 10 7.5019531 10 C 6.3914613 10 5.5019531 9.1105 5.5019531 8 C 5.5019531 6.8895 6.3914613 6 7.5019531 6 z M 0.50195312 7.5 L 0.50195312 8.5 L 3.5019531 8.5 L 3.5019531 7.5 L 0.50195312 7.5 z M 11.501953 7.5 L 11.501953 8.5 L 14.501953 8.5 L 14.501953 7.5 L 11.501953 7.5 z M 4.3203125 10.476562 L 2.1992188 12.597656 L 2.90625 13.304688 L 5.0273438 11.183594 L 4.3203125 10.476562 z M 10.685547 10.476562 L 9.9785156 11.183594 L 12.099609 13.304688 L 12.806641 12.597656 L 10.685547 10.476562 z M 7.0019531 12 L 7.0019531 15 L 8.0019531 15 L 8.0019531 12 L 7.0019531 12 z " color="#000" enable-background="accumulate" font-family="sans-serif" font-weight="400" overflow="visible"/></svg>